<svg xmlns="http://www.w3.org/2000/svg" viewBox="0 0 293.69 298.56"><defs><style>.cls-1{fill:#00e4de;}</style></defs><g id="Layer_2" data-name="Layer 2"><g id="mentores_e_colabs" data-name="mentores e colabs"><path class="cls-1" d="M172.05,185.63c-4.79,10.21-2.56,29.35-.32,46.26.64,5.42,1.27,10.84,1.59,15s.32,47.21.32,47.53a3.19,3.19,0,0,0,3.19,3.19l65.71,1h0a3.5,3.5,0,0,0,3.19-3.19l1-22.33h21.37a3.18,3.18,0,0,0,3.19-2.55l4.79-23h14.35a4.73,4.73,0,0,0,2.87-1.28,5.36,5.36,0,0,0,.32-3.19l-16.9-41.15c-.32-27.11-23.93-49.76-52.32-50.72V108.12H169.81V95.68a18.54,18.54,0,0,1,6.38-13.4A46.26,46.26,0,0,0,193.1,46.55a47.57,47.57,0,0,0-15.31-34.77A46.92,46.92,0,0,0,141.42.3a46.25,46.25,0,0,0-40.51,41.15,45.29,45.29,0,0,0,16.27,40.19,17.86,17.86,0,0,1,6.7,13.4v13.08H69.33v43.06c-28.39,1-52,23.61-52.31,50.72L.11,242.73a5.36,5.36,0,0,0,.32,3.19A4.11,4.11,0,0,0,3.3,247.2H17.65l4.79,23a3.19,3.19,0,0,0,3.19,2.55H47l1,22.33a3.51,3.51,0,0,0,3.19,3.19h0l65.71-1a3.19,3.19,0,0,0,3.19-3.19c0-.32,0-41.79.32-47.53s1-9.57,1.59-15c2.24-16.91,4.47-36-.31-46.25-6.38-18.51-25.21-32.22-45.94-34.14V114.5h48.17v17.22h45.93V114.5H218v37C197.25,153.42,178.43,167.13,172.05,185.63Zm-56.47,2.24a.33.33,0,0,0,.32.32c3.83,8.61,1.6,27.75-.32,43.06-.63,5.42-1.27,10.85-1.59,15.31s-.32,34.77-.32,44.66l-59.33.64-1-22a3.19,3.19,0,0,0-3.19-3.19h-22L23.4,243.37a3.19,3.19,0,0,0-3.19-2.55H8.08l15-37v-1.28c0-24.24,21.69-45,47.21-45C90.7,157.56,109.52,170.32,115.58,187.87Zm5.75-111a38.91,38.91,0,0,1-14-34.77A39.87,39.87,0,0,1,142.06,6.68a39.21,39.21,0,0,1,31.26,9.89,39.84,39.84,0,0,1,13.4,30,40.84,40.84,0,0,1-14.67,31,22.94,22.94,0,0,0-8.3,15.31H129.94A23.59,23.59,0,0,0,121.33,76.86Zm8.93,48.48V99.19h33.17v26.15Zm140,77.2v1.28l15,37h-11.8a3.18,3.18,0,0,0-3.19,2.55l-4.79,23.29h-22a3.19,3.19,0,0,0-3.19,3.19l-1,22L180,291.22c0-9.89,0-39.55-.32-44.66s-.95-9.89-1.59-15.31c-1.92-15.31-4.15-34.45-.32-43.06a.33.33,0,0,0,.32-.32c6.06-17.55,24.88-30.31,45-30.31C248.61,157.56,270.3,178.3,270.3,202.54Z"/></g></g></svg>