<svg xmlns="http://www.w3.org/2000/svg" viewBox="0 0 341.35 340.99"><defs><style>.cls-1{fill:#00e4de;}</style></defs><g id="Layer_2" data-name="Layer 2"><g id="Layer_1-2" data-name="Layer 1"><path class="cls-1" d="M188.79,256.74V340.3l-.47.05L171,258.72l-.83-.05L152.78,341l-.34,0V256.78l-.55-.14-34.08,76.68-.28-.08,17.58-82.1-.67-.34L85.21,318.63l-.31-.18q17.11-38.28,34.22-76.57l-.54-.41L55.87,298l-.21-.17,49.64-68.09-.45-.58L32.3,271.09c-.07-.1-.15-.19-.23-.29l62.4-56c-.12-.2-.23-.41-.34-.61L14.44,240.13l-.15-.33L86.9,198c-.09-.24-.18-.48-.26-.71L3.58,206.14c0-.13-.05-.25-.08-.38L82.87,180.1c0-.25,0-.5,0-.75-13.77-1.51-27.55-2.9-41.33-4.31S13.85,172.13,0,170.29l82.91-8.64c0-.25,0-.51,0-.76L3.6,135.24c0-.14,0-.27,0-.4l82.92,8.8c.11-.22.21-.45.32-.68-24.14-14-48.36-27.82-72.4-42.1l79.63,25.92.33-.62-62.37-56,.2-.31,72.53,41.93.5-.53L55.66,43.14l.19-.19,62.67,56.49.59-.36Q102,60.79,84.9,22.5l.31-.17,49.18,67.78.71-.29q-8.77-41-17.57-82.1l.27-.1,34.09,76.71.59-.16V0h.31l17.4,82.24.84,0Q179.69,41.43,188.32.6l.34,0V84.15l.67.2q17-38.28,34-76.57l.32.07q-8.79,41-17.56,82l.65.34q24.71-34,49.39-68.05l.28.15L222.16,99l.55.46L285,43.29l.28.22L236,111.22l.48.57q36.21-20.94,72.43-41.87l.24.3-62.35,56,.33.6,79.63-25.92.15.34-72.48,41.7c.09.24.17.49.26.73l82.83-8.8.09.42-79.22,25.61c0,.26,0,.53,0,.79l82.95,8.63c0,.13,0,.25,0,.38l-83,8.64c0,.26,0,.52,0,.78l79.16,25.6-.06.43-82.76-8.79-.33.7,72.5,41.73c-.05.11-.1.23-.14.34l-79.64-25.92c-.1.2-.21.4-.32.6l62.37,56-.21.31-72.43-41.87-.54.52,49.35,67.71-.26.25L222.7,241.51l-.58.38,34.31,76.76-.26.18q-24.68-34-49.36-68l-.69.28q8.79,41,17.57,82.08l-.29.09q-17-38.33-34.07-76.66l-.54.14"/></g></g></svg>